# xmcd
#
# Track frame offsets: 
#        150
#        8120
#        17618
#        28600
#        36998
#        45865
#        58318
#        72113
#        83078
#        94455
#        105623
#        119970
#
# Disc length: 1697 seconds
#
# Revision: 1
# Processed by: cddbd v1.5.2PL0 Copyright (c) Steve Scherf et al.
# Submitted via: ExactAudioCopy v1.1
#
DISCID=9c069f0c
DTITLE=Various Artist - Country For Kids Vol 3: I Like Cowboy Songs
DYEAR=1994
DGENRE=Country
TTITLE0=Arthur Smith - The Old Chisholm Trail
TTITLE1=The Willis Bros. with Johnny Bond - Sky Ball Paint
TTITLE2=Jim Silvers - Cannonball Yodel
TTITLE3=The Willis Bros. with Johnny Bond - The Happy Cowboy
TTITLE4=The Willis Bros. - Cimmaron (Roll On)
TTITLE5=The Willis Bros. - Riders In The Sky
TTITLE6=The Pinnacle Boys - Cheyenne
TTITLE7=Johnny Bond with The Willis Bros. - Back In The Saddle Again
TTITLE8=Arthur Smith - Fools Of Forty-Nine
TTITLE9=Tommy Faile - Git Along Little Doggies
TTITLE10=The Willis Bros. - (Take Me Back To My) Boots And Saddles
TTITLE11=Merle Travis - La Marcha De Los Mexicanos
EXTD=
EXTT0=
EXTT1=
EXTT2=
EXTT3=
EXTT4=
EXTT5=
EXTT6=
EXTT7=
EXTT8=
EXTT9=
EXTT10=
EXTT11=
PLAYORDER=
